<svg width="211" height="40" viewBox="0 0 211 40" fill="none" xmlns="http://www.w3.org/2000/svg">
<path fill-rule="evenodd" clip-rule="evenodd" d="M18.2143 4.72207C15.3889 3.13952 10.1036 1.20372 4.27549 0.512259C1.92503 0.233394 0 2.17028 0 4.53721V27.3944C0 29.7614 1.93436 31.6474 4.26323 32.0703C9.52157 33.0251 13.8952 35.5466 16.686 37.54C17.1535 37.874 17.6711 38.1268 18.2143 38.2988V4.72207ZM21.7857 38.2994C22.3282 38.1277 22.845 37.8751 23.312 37.5417C26.1027 35.548 30.4771 33.0257 35.7369 32.0708C38.0657 31.648 40 29.7617 40 27.3948V4.53764C40 2.17069 38.0749 0.233801 35.7246 0.512665C29.8963 1.20413 24.6111 3.13967 21.7857 4.72213V38.2994Z" fill="#E07A5F"/>
<path d="M73.376 32H69.088C68.7893 32 68.5493 31.9253 68.368 31.776C68.1973 31.6267 68.0587 31.456 67.952 31.264L62.592 22.384C62.5067 22.6507 62.4053 22.88 62.288 23.072L57.152 31.264C57.024 31.4453 56.8747 31.616 56.704 31.776C56.544 31.9253 56.3307 32 56.064 32H52.048L59.728 20.096L52.352 8.864H56.64C56.9387 8.864 57.152 8.90667 57.28 8.992C57.4187 9.06667 57.5467 9.19467 57.664 9.376L62.928 17.856C63.0347 17.5893 63.1627 17.3227 63.312 17.056L68.144 9.456C68.2613 9.25333 68.3893 9.104 68.528 9.008C68.6667 8.912 68.8427 8.864 69.056 8.864H73.168L65.728 19.92L73.376 32ZM85.9808 23.04V32H81.6927V23.04L73.2607 8.864H77.0528C77.4261 8.864 77.7194 8.95467 77.9328 9.136C78.1568 9.31733 78.3434 9.54667 78.4928 9.824L82.7168 17.552C82.9621 18.0107 83.1754 18.4427 83.3568 18.848C83.5488 19.2533 83.7194 19.6587 83.8688 20.064C84.0074 19.6587 84.1674 19.2533 84.3488 18.848C84.5301 18.4427 84.7381 18.0107 84.9728 17.552L89.1808 9.824C89.2981 9.58933 89.4741 9.37067 89.7088 9.168C89.9434 8.96533 90.2421 8.864 90.6048 8.864H94.4128L85.9808 23.04ZM112.731 10.448C112.731 10.9387 112.592 11.3867 112.315 11.792L100.443 28.56H112.459V32H94.8588V30.304C94.8588 30.0907 94.8961 29.888 94.9708 29.696C95.0454 29.4933 95.1414 29.3067 95.2588 29.136L107.163 12.288H95.6108V8.864H112.731V10.448ZM132.607 28.64C133.407 28.64 134.079 28.544 134.623 28.352C135.167 28.16 135.599 27.904 135.919 27.584C136.25 27.264 136.484 26.8907 136.623 26.464C136.772 26.0373 136.847 25.584 136.847 25.104C136.847 24.6027 136.767 24.1547 136.607 23.76C136.447 23.3547 136.196 23.0133 135.855 22.736C135.514 22.448 135.071 22.2293 134.527 22.08C133.994 21.9307 133.348 21.856 132.591 21.856H128.255V28.64H132.607ZM128.255 12.192V18.88H131.679C133.151 18.88 134.26 18.6133 135.007 18.08C135.764 17.5467 136.143 16.6987 136.143 15.536C136.143 14.3307 135.802 13.472 135.119 12.96C134.436 12.448 133.37 12.192 131.919 12.192H128.255ZM131.919 8.864C133.434 8.864 134.73 9.008 135.807 9.296C136.884 9.584 137.764 9.99467 138.447 10.528C139.14 11.0613 139.647 11.7067 139.967 12.464C140.287 13.2213 140.447 14.0747 140.447 15.024C140.447 15.568 140.367 16.0907 140.207 16.592C140.047 17.0827 139.796 17.5467 139.455 17.984C139.124 18.4107 138.698 18.8 138.175 19.152C137.663 19.504 137.05 19.8027 136.335 20.048C139.514 20.7627 141.103 22.48 141.103 25.2C141.103 26.1813 140.916 27.088 140.543 27.92C140.17 28.752 139.626 29.472 138.911 30.08C138.196 30.6773 137.316 31.1467 136.271 31.488C135.226 31.8293 134.031 32 132.687 32H123.951V8.864H131.919ZM151.435 15.328C152.651 15.328 153.755 15.5253 154.747 15.92C155.749 16.3147 156.603 16.8747 157.307 17.6C158.021 18.3253 158.571 19.2107 158.955 20.256C159.339 21.3013 159.531 22.4693 159.531 23.76C159.531 25.0613 159.339 26.2347 158.955 27.28C158.571 28.3253 158.021 29.216 157.307 29.952C156.603 30.688 155.749 31.2533 154.747 31.648C153.755 32.0427 152.651 32.24 151.435 32.24C150.208 32.24 149.093 32.0427 148.091 31.648C147.088 31.2533 146.229 30.688 145.515 29.952C144.811 29.216 144.261 28.3253 143.867 27.28C143.483 26.2347 143.291 25.0613 143.291 23.76C143.291 22.4693 143.483 21.3013 143.867 20.256C144.261 19.2107 144.811 18.3253 145.515 17.6C146.229 16.8747 147.088 16.3147 148.091 15.92C149.093 15.5253 150.208 15.328 151.435 15.328ZM151.435 29.2C152.8 29.2 153.808 28.7413 154.459 27.824C155.12 26.9067 155.451 25.5627 155.451 23.792C155.451 22.0213 155.12 20.672 154.459 19.744C153.808 18.816 152.8 18.352 151.435 18.352C150.048 18.352 149.019 18.8213 148.347 19.76C147.685 20.688 147.355 22.032 147.355 23.792C147.355 25.552 147.685 26.896 148.347 27.824C149.019 28.7413 150.048 29.2 151.435 29.2ZM169.81 15.328C171.026 15.328 172.13 15.5253 173.122 15.92C174.124 16.3147 174.978 16.8747 175.682 17.6C176.396 18.3253 176.946 19.2107 177.33 20.256C177.714 21.3013 177.906 22.4693 177.906 23.76C177.906 25.0613 177.714 26.2347 177.33 27.28C176.946 28.3253 176.396 29.216 175.682 29.952C174.978 30.688 174.124 31.2533 173.122 31.648C172.13 32.0427 171.026 32.24 169.81 32.24C168.583 32.24 167.468 32.0427 166.466 31.648C165.463 31.2533 164.604 30.688 163.89 29.952C163.186 29.216 162.636 28.3253 162.242 27.28C161.858 26.2347 161.666 25.0613 161.666 23.76C161.666 22.4693 161.858 21.3013 162.242 20.256C162.636 19.2107 163.186 18.3253 163.89 17.6C164.604 16.8747 165.463 16.3147 166.466 15.92C167.468 15.5253 168.583 15.328 169.81 15.328ZM169.81 29.2C171.175 29.2 172.183 28.7413 172.834 27.824C173.495 26.9067 173.826 25.5627 173.826 23.792C173.826 22.0213 173.495 20.672 172.834 19.744C172.183 18.816 171.175 18.352 169.81 18.352C168.423 18.352 167.394 18.8213 166.722 19.76C166.06 20.688 165.73 22.032 165.73 23.792C165.73 25.552 166.06 26.896 166.722 27.824C167.394 28.7413 168.423 29.2 169.81 29.2ZM184.873 8.224V21.84H185.609C185.875 21.84 186.083 21.808 186.233 21.744C186.393 21.6693 186.553 21.5253 186.713 21.312L190.793 16.272C190.963 16.048 191.15 15.8773 191.353 15.76C191.566 15.6427 191.838 15.584 192.169 15.584H195.785L190.681 21.68C190.318 22.16 189.923 22.528 189.497 22.784C189.721 22.944 189.918 23.1307 190.089 23.344C190.27 23.5573 190.441 23.7867 190.601 24.032L196.073 32H192.505C192.195 32 191.929 31.952 191.705 31.856C191.481 31.7493 191.294 31.5627 191.145 31.296L186.953 25.072C186.803 24.8267 186.649 24.6667 186.489 24.592C186.329 24.5173 186.089 24.48 185.769 24.48H184.873V32H180.921V8.224H184.873ZM208.031 18.784C207.924 18.9547 207.812 19.0773 207.695 19.152C207.577 19.216 207.428 19.248 207.247 19.248C207.055 19.248 206.847 19.1947 206.623 19.088C206.409 18.9813 206.159 18.864 205.871 18.736C205.583 18.5973 205.252 18.4747 204.878 18.368C204.516 18.2613 204.084 18.208 203.583 18.208C202.804 18.208 202.191 18.3733 201.743 18.704C201.305 19.0347 201.087 19.4667 201.087 20C201.087 20.352 201.199 20.6507 201.423 20.896C201.657 21.1307 201.961 21.3387 202.335 21.52C202.719 21.7013 203.151 21.8667 203.631 22.016C204.111 22.1547 204.596 22.3093 205.087 22.48C205.588 22.6507 206.079 22.848 206.559 23.072C207.039 23.2853 207.465 23.5627 207.839 23.904C208.223 24.2347 208.527 24.6347 208.751 25.104C208.985 25.5733 209.103 26.1387 209.103 26.8C209.103 27.5893 208.959 28.32 208.671 28.992C208.393 29.6533 207.977 30.2293 207.423 30.72C206.868 31.2 206.18 31.5787 205.359 31.856C204.548 32.1227 203.609 32.256 202.543 32.256C201.977 32.256 201.423 32.2027 200.879 32.096C200.345 32 199.828 31.8613 199.327 31.68C198.836 31.4987 198.377 31.2853 197.951 31.04C197.535 30.7947 197.167 30.528 196.847 30.24L197.759 28.736C197.876 28.5547 198.015 28.416 198.174 28.32C198.334 28.224 198.537 28.176 198.783 28.176C199.028 28.176 199.257 28.2453 199.471 28.384C199.695 28.5227 199.951 28.672 200.239 28.832C200.527 28.992 200.863 29.1413 201.247 29.28C201.641 29.4187 202.137 29.488 202.735 29.488C203.204 29.488 203.604 29.4347 203.935 29.328C204.276 29.2107 204.553 29.0613 204.767 28.88C204.991 28.6987 205.15 28.4907 205.247 28.256C205.353 28.0107 205.407 27.76 205.407 27.504C205.407 27.12 205.289 26.8053 205.055 26.56C204.831 26.3147 204.527 26.1013 204.142 25.92C203.769 25.7387 203.337 25.5787 202.847 25.44C202.367 25.2907 201.871 25.1307 201.359 24.96C200.857 24.7893 200.361 24.592 199.871 24.368C199.391 24.1333 198.959 23.84 198.575 23.488C198.201 23.136 197.897 22.704 197.663 22.192C197.439 21.68 197.327 21.0613 197.327 20.336C197.327 19.664 197.46 19.024 197.727 18.416C197.993 17.808 198.383 17.28 198.895 16.832C199.417 16.3733 200.063 16.0107 200.831 15.744C201.609 15.4667 202.505 15.328 203.519 15.328C204.649 15.328 205.679 15.5147 206.607 15.888C207.535 16.2613 208.308 16.752 208.927 17.36L208.031 18.784Z" fill="#E07A5F"/>
</svg>
